General                          : ChattChitto RG - Movies [R2L]
==========
Complete name                    : Megamind 2010 720p BRRip H264 [ChattChitto RG]
Format                           : MPEG-4
Format profile                   : Base Media
Codec ID                         : isom
File size                        : 1.64 GiB
Duration                         : 1h 35mn
Overall bit rate                 : 2 452 Kbps
Encoded date                     : UTC 2011-02-16 07:08:44

Video
==========
ID                               : 1
Format                           : AVC
Format/Info                      : Advanced Video Codec
Format profile                   : High@L4.0
Format settings, CABAC           : Yes
Format settings, ReFrames        : 4 frames
Codec ID                         : avc1
Codec ID/Info                    : Advanced Video Coding
Duration                         : 1h 35mn
Bit rate mode                    : Variable
Bit rate                         : 2 100 Kbps
Maximum bit rate                 : 27.7 Mbps
Width                            : 1 280 pixels
Height                           : 544 pixels
Display aspect ratio             : 2.35:1
Frame rate mode                  : Constant
Frame rate                       : 23.976 fps
Resolution                       : 24 bits
Colorimetry                      : 4:2:0
Scan type                        : Progressive
Bits/(Pixel*Frame)               : 0.126
Stream size                      : 1.40 GiB (86%)
Writing library                  : x264 core 84 r1400M 20fa784
Encoded date                     : UTC 2011-02-16 06:15:07

Audio
==========
ID                               : 2
Format                           : AAC
Format/Info                      : Advanced Audio Codec
Format version                   : Version 4
Format profile                   : LC
Format settings, SBR             : No
Codec ID                         : 40
Duration                         : 1h 35mn
Bit rate mode                    : Variable
Bit rate                         : 352.8 Kbps
Maximum bit rate                 : 455 Kbps
Channel(s)                       : 6 channels
Channel positions                : Front: L C R, Rear: L R, LFE
Sampling rate                    : 48.0 KHz
Resolution                       : 16 bits
Stream size                      : 238 MiB (14%)
Encoded date                     : UTC 2011-02-16 07:09:28

Subtitles                        : English | Romanian


----------------------------------------------------
IMDB Link: http://www.imdb.com/title/tt1001526/
----------------------------------------------------



Screen Shots:
==============    
http://chattchitto.net/chattchittorg/movies/brrip/2011/megamind/3.png 
http://chattchitto.net/chattchittorg/movies/brrip/2011/megamind/4.png 
http://chattchitto.net/chattchittorg/movies/brrip/2011/megamind/5.png 
http://chattchitto.net/chattchittorg/movies/brrip/2011/megamind/6.png 
http://chattchitto.net/chattchittorg/movies/brrip/2011/megamind/7.png



ScreenShots Comparison:
=========================  
http://screenshotcomparison.com/comparison/29211



Plot:
======
After super-villain Megamind kills his good-guy nemesis, Metro Man, he becomes bored since there is no one left to fight. He creates a new foe, Titan, who, instead of using his powers for good, sets out to destroy the world, positioning Megamind to save the day for the first time in his life.



Release Info:
==============
original name .... : Megamind 2010 720p BRRip H264 [ChattChitto RG]
ripper.............: SECTOR 7
encoder............: Recalled2Life (R2L)
video codec........: H264/.MP4
video bitrate......: 2100 Kbps
audio codec........: AAC-LC
aspect ratio.......: 2.35:1
resolution.........: 1280 x 544
genre..............: Animation | Action | Comedy
runtime............: 1h 35mn
language...........: English
rating.............: PG
subtitles..........: English | Romanian
sample.............: Yes [14.3 MB]
2ch Audio..........: 2ch Audio for XBox Viewers
Compatibility .....: XBox | PS3 | WD Live



Source:
========
Megamind.2010.1080p.BluRay.x264-SECTOR7  THANKS!



Notes:
=======
ChattChitto RG Encourages Burning this Film with ConvertXtoDVD and Playing with VLC media player.
XBox 360 | PS3 | WD Live - Compatible 
Enhanced for your viewing pleasure ;)